<svg width="143" height="148" viewBox="0 0 143 148" fill="none" xmlns="http://www.w3.org/2000/svg">
  <g clip-path="url(#clip0_493_6638)">
    <path d="M39.7297 37.4753C42.4575 35.1682 46.209 34.4915 49.5709 35.7003L93.8186 51.6097C97.1805 52.8184 99.6422 55.729 100.276 59.2449L108.622 105.519C109.256 109.035 107.967 112.622 105.239 114.929L69.3371 145.294C66.6093 147.601 62.8579 148.278 59.4959 147.069L15.2483 131.16C11.8863 129.951 9.42463 127.041 8.7905 123.525L0.444533 77.2505C-0.189595 73.7345 1.10017 70.1474 3.82799 67.8402L39.7297 37.4753Z" fill="#BDD9BF"/>
    <rect opacity="0.7" x="29.8125" y="35.3877" width="95.9425" height="109.008" rx="5" transform="rotate(-2.636 29.8125 35.3877)" fill="#FFC857"/>
    <rect x="40.5" y="26" width="94" height="112" rx="4" fill="white" stroke="black" stroke-width="2"/>
    <rect x="57.8418" y="47.8807" width="60.6816" height="4.10011" rx="2.05005" fill="#0F2B46"/>
    <rect x="57.5" y="57" width="53" height="4" rx="2" fill="#0F2B46"/>
    <rect x="57.8418" y="65.9212" width="60.6816" height="4.10011" rx="2.05005" fill="#0F2B46"/>
    <rect x="57.8418" y="76.5815" width="37.721" height="4.10011" rx="2.05005" fill="#0F2B46"/>
    <rect x="57.8418" y="85.6017" width="37.721" height="4.10011" rx="2.05005" fill="#0F2B46"/>
    <rect x="57.8418" y="94.6219" width="37.721" height="4.10011" rx="2.05005" fill="#0F2B46"/>
    <g style="mix-blend-mode:multiply">
      <circle cx="25" cy="75.5" r="9.5" fill="#BDD9BF"/>
    </g>
    <ellipse cx="133" cy="35" rx="10.5" ry="10" fill="#BDD9BF"/>
    <path d="M133.226 32.4852C135.36 32.4852 137.09 30.7551 137.09 28.6208C137.09 26.4865 135.36 24.7563 133.226 24.7563C131.092 24.7563 129.361 26.4865 129.361 28.6208C129.361 30.7551 131.092 32.4852 133.226 32.4852Z" stroke="black" stroke-width="2" stroke-linecap="round" stroke-linejoin="round"/>
    <path d="M133.226 37.2414C128.465 37.2414 124.605 33.3818 124.605 28.6207C124.605 23.8596 128.465 20 133.226 20C141.327 20 141.847 25.2021 141.847 28.6207V30.107C141.847 31.4205 140.782 32.4851 139.469 32.4851C138.155 32.4851 137.091 31.4205 137.091 30.107V24.7562" stroke="black" stroke-width="2" stroke-linecap="round" stroke-linejoin="round"/>
    <path d="M29.8636 61.2273V73.25C29.8636 75.5605 27.9109 77.4318 25.5 77.4318C23.0891 77.4318 21.1364 75.5605 21.1364 73.25V60.1818C21.1364 58.7391 22.3582 57.5682 23.8636 57.5682C25.3691 57.5682 26.5909 58.7391 26.5909 60.1818V71.1591C26.5909 71.7341 26.1 72.2045 25.5 72.2045C24.9 72.2045 24.4091 71.7341 24.4091 71.1591V61.2273H22.7727V71.1591C22.7727 72.6018 23.9945 73.7727 25.5 73.7727C27.0055 73.7727 28.2273 72.6018 28.2273 71.1591V60.1818C28.2273 57.8714 26.2745 56 23.8636 56C21.4527 56 19.5 57.8714 19.5 60.1818V73.25C19.5 76.4282 22.1836 79 25.5 79C28.8164 79 31.5 76.4282 31.5 73.25V61.2273H29.8636Z" fill="black"/>
    <path d="M17.5 15.3677L25.0931 21.9506" stroke="#FFC857" stroke-width="3" stroke-linecap="round"/>
    <path d="M54.3848 2L48.568 10.1948" stroke="#FFC857" stroke-width="3" stroke-linecap="round"/>
    <circle cx="39" cy="40.5" r="3.5" stroke="#F46F52" stroke-width="2"/>
    <g opacity="0.2">
      <rect x="55.5" y="45" width="67" height="9" fill="#006494"/>
      <rect x="55.5" y="55" width="60" height="9" fill="#006494"/>
      <rect x="55.5" y="65" width="46" height="9" fill="#006494"/>
    </g>
  </g>
  <defs>
    <clipPath id="clip0_493_6638">
      <rect width="143" height="148" fill="white"/>
    </clipPath>
  </defs>
</svg>
