<?xml version="1.0" standalone="no"?><!DOCTYPE svg PUBLIC "-//W3C//DTD SVG 1.1//EN" "http://www.w3.org/Graphics/SVG/1.1/DTD/svg11.dtd"><svg t="1715153052243" class="icon" viewBox="0 0 1024 1024" version="1.1" xmlns="http://www.w3.org/2000/svg" p-id="35299" xmlns:xlink="http://www.w3.org/1999/xlink" width="200" height="200"><path d="M514.45 334.98m-235.19 0a235.19 235.19 0 1 0 470.38 0 235.19 235.19 0 1 0-470.38 0Z" fill="#279ACC" p-id="35300"></path><path d="M514.45 605.88c-149.34 0-270.83-121.49-270.83-270.82S365.11 64.22 514.45 64.22s270.83 121.5 270.83 270.84-121.5 270.82-270.83 270.82z m0-476.31C401.14 129.57 309 221.75 309 335.06s92.17 205.47 205.48 205.47 205.48-92.17 205.48-205.47-92.21-205.49-205.51-205.49z" fill="#303030" p-id="35301"></path><path d="M832 832.87a32.67 32.67 0 0 1-32.67-32.67c0-107.15-87.16-194.32-194.31-194.32H423.87c-107.14 0-194.32 87.17-194.32 194.32a32.67 32.67 0 0 1-65.34 0c0-143.18 116.49-259.67 259.66-259.67H605c143.18 0 259.66 116.49 259.66 259.67A32.67 32.67 0 0 1 832 832.87z" fill="#303030" p-id="35302"></path></svg>