<?xml version="1.0" standalone="no"?><!DOCTYPE svg PUBLIC "-//W3C//DTD SVG 1.1//EN" "http://www.w3.org/Graphics/SVG/1.1/DTD/svg11.dtd"><svg t="1715152955352" class="icon" viewBox="0 0 1024 1024" version="1.1" xmlns="http://www.w3.org/2000/svg" p-id="20938" xmlns:xlink="http://www.w3.org/1999/xlink" width="200" height="200"><path d="M0 0h1024v1024H0V0z" fill="#202425" opacity=".01" p-id="20939"></path><path d="M68.266667 102.4a34.133333 34.133333 0 0 1 34.133333-34.133333h819.2a34.133333 34.133333 0 0 1 34.133333 34.133333v204.8a34.133333 34.133333 0 0 1-34.133333 34.133333H102.4a34.133333 34.133333 0 0 1-34.133333-34.133333V102.4z" fill="#11AA66" p-id="20940"></path><path d="M68.266667 716.8a34.133333 34.133333 0 0 1 34.133333-34.133333h204.8a34.133333 34.133333 0 0 1 34.133333 34.133333v204.8a34.133333 34.133333 0 0 1-34.133333 34.133333H102.4a34.133333 34.133333 0 0 1-34.133333-34.133333v-204.8zM375.466667 716.8a34.133333 34.133333 0 0 1 34.133333-34.133333h204.8a34.133333 34.133333 0 0 1 34.133333 34.133333v204.8a34.133333 34.133333 0 0 1-34.133333 34.133333h-204.8a34.133333 34.133333 0 0 1-34.133333-34.133333v-204.8zM682.666667 716.8a34.133333 34.133333 0 0 1 34.133333-34.133333h204.8a34.133333 34.133333 0 0 1 34.133333 34.133333v204.8a34.133333 34.133333 0 0 1-34.133333 34.133333h-204.8a34.133333 34.133333 0 0 1-34.133333-34.133333v-204.8zM68.266667 512a34.133333 34.133333 0 0 1 34.133333-34.133333h819.2a34.133333 34.133333 0 1 1 0 68.266666H102.4a34.133333 34.133333 0 0 1-34.133333-34.133333z" fill="#FFAA44" p-id="20941"></path><path d="M477.866667 409.6a34.133333 34.133333 0 1 1 68.266666 0v204.8a34.133333 34.133333 0 1 1-68.266666 0v-204.8z" fill="#FFAA44" p-id="20942"></path></svg>